<svg data-v-0dd9719b="" version="1.0" xmlns="http://www.w3.org/2000/svg" xmlns:xlink="http://www.w3.org/1999/xlink" width="100%" height="100%" viewBox="0 0 340.000000 250.000000" preserveAspectRatio="xMidYMid meet" color-interpolation-filters="sRGB" style="margin: auto;"> <rect data-v-0dd9719b="" x="0" y="0" width="100%" height="100%" fill="#fff" fill-opacity="1" class="background"></rect> <rect data-v-0dd9719b="" x="0" y="0" width="100%" height="100%" fill="url(#watermark)" fill-opacity="1" class="watermarklayer"></rect> <g data-v-0dd9719b="" fill="#333" class="icon-text-wrapper icon-svg-group iconsvg" transform="translate(79.97499084472656,81.17464065551758)"><g class="iconsvg-imagesvg" transform="translate(60.02500915527344,0)"><g><rect fill="#333" fill-opacity="0" stroke-width="2" x="0" y="0" width="60" height="59.470710674992574" class="image-rect"></rect> <svg x="0" y="0" width="60" height="59.470710674992574" filtersec="colorsb447782014" class="image-svg-svg primary" style="overflow: visible;"><svg xmlns="http://www.w3.org/2000/svg" viewBox="0 0 243.77999877929688 241.6300048828125"><path fill="#ff525b" d="M122.89 0l-49 47v98l49-45 48 45V47l-48-47z"></path><path fill="#447c9d" d="M184.89 60.86v28.28l30.6 30.61-93.6 93.6-93.61-93.6 28.61-28.61V62.86L0 119.75l121.89 121.88 121.89-121.88-58.89-58.89z"></path></svg></svg> <!----></g></g> <g transform="translate(0,66.4707145690918)"><g data-gra="path-name" fill-rule="" class="tp-name iconsvg-namesvg"><g transform="scale(1)"><g><path d="M13.35-9.74L13.35-9.74Q13.35-7.57 12.95-5.66 12.54-3.76 11.74-2.34 10.94-0.92 9.75-0.1 8.56 0.72 7.01 0.72L7.01 0.72Q5.43 0.72 4.24-0.1 3.06-0.92 2.26-2.34 1.47-3.76 1.07-5.66 0.67-7.57 0.67-9.74L0.67-9.74Q0.67-11.9 1.05-13.8 1.44-15.7 2.23-17.12 3.02-18.53 4.21-19.35 5.41-20.17 7.01-20.17L7.01-20.17Q8.67-20.17 9.87-19.35 11.07-18.53 11.85-17.12 12.62-15.7 12.99-13.8 13.35-11.9 13.35-9.74ZM9.79-9.74L9.79-9.74Q9.79-11.42 9.66-12.91 9.52-14.4 9.2-15.51 8.88-16.61 8.35-17.25 7.81-17.89 7.01-17.89L7.01-17.89Q6.24-17.89 5.71-17.25 5.18-16.61 4.85-15.51 4.52-14.4 4.37-12.91 4.22-11.42 4.22-9.74L4.22-9.74Q4.22-8.04 4.37-6.55 4.52-5.07 4.86-3.96 5.19-2.85 5.72-2.21 6.25-1.56 7.01-1.56L7.01-1.56Q7.76-1.56 8.29-2.21 8.82-2.85 9.16-3.96 9.5-5.07 9.64-6.55 9.79-8.04 9.79-9.74ZM30.07 0.34L30.07 0.34 26.34 0.61Q26.46-1.18 26.54-2.68 26.61-4.17 26.64-5.27L26.64-5.27Q26.68-6.55 26.68-7.59L26.68-7.59Q26.68-8.08 26.67-8.69L26.67-8.69Q26.65-9.21 26.63-9.93 26.61-10.65 26.57-11.52L26.57-11.52Q26.22-9.88 25.95-8.69 25.69-7.5 25.52-6.72L25.52-6.72Q25.32-5.81 25.2-5.2L25.2-5.2Q25.01-4.37 24.86-3.55L24.86-3.55Q24.72-2.84 24.6-2.04 24.48-1.24 24.42-0.58L24.42-0.58 20.95-0.61Q20.66-2.38 20.37-4 20.08-5.62 19.77-7.14 19.47-8.65 19.15-10.09 18.83-11.52 18.47-12.93L18.47-12.93Q18.41-11.57 18.38-10.47 18.35-9.37 18.35-8.57L18.35-8.57Q18.35-6.26 18.47-4.2 18.6-2.13 18.8-0.11L18.8-0.11 14.79 0Q14.89-0.98 14.96-2.11 15.02-3.25 15.07-4.41 15.12-5.57 15.15-6.69 15.17-7.81 15.19-8.79 15.2-9.77 15.21-10.53 15.21-11.29 15.21-11.71L15.21-11.71Q15.21-12.47 15.21-13.45 15.2-14.43 15.18-15.45 15.16-16.48 15.13-17.46 15.11-18.45 15.05-19.22L15.05-19.22Q15.7-19.19 16.29-19.18 16.87-19.17 17.39-19.17L17.39-19.17Q18.71-19.17 19.44-19.21L19.44-19.21Q19.87-19.22 20.2-19.25L20.2-19.25Q20.39-17.52 20.61-15.89 20.84-14.25 21.11-12.67 21.38-11.1 21.7-9.56 22.02-8.01 22.39-6.48L22.39-6.48Q22.88-8.2 23.32-9.86 23.77-11.52 24.14-13.14 24.51-14.75 24.78-16.34 25.05-17.93 25.2-19.51L25.2-19.51Q25.7-19.48 26.14-19.47 26.57-19.45 26.95-19.45L26.95-19.45Q27.72-19.45 28.26-19.48 28.8-19.51 29.15-19.55L29.15-19.55Q29.56-19.59 29.82-19.64L29.82-19.64Q29.71-18.22 29.64-16.82 29.57-15.42 29.54-14.15 29.5-12.89 29.5-11.84 29.49-10.79 29.49-10.07L29.49-10.07Q29.49-9.77 29.5-9.14 29.5-8.52 29.53-7.67 29.56-6.82 29.6-5.81 29.64-4.81 29.7-3.75 29.76-2.69 29.86-1.64 29.95-0.6 30.07 0.34Z" transform="translate(-0.6700000166893005, 20.170000076293945)"></path></g> <!----> <!----> <!----> <!----> <!----> <!----> <g data-gra="path-name-1" fill="#333" transform="translate(32.39999961853027,0)"><g transform="scale(1)"><path d="M4.81 0.14L4.81 0.14 1.22 0.5Q1.25-0.41 1.27-1.39 1.29-2.38 1.3-3.36 1.32-4.33 1.33-5.28 1.34-6.22 1.34-7.06L1.34-7.06Q1.36-9.05 1.36-10.96L1.36-10.96Q1.34-12.67 1.32-14.28L1.32-14.28Q1.3-14.96 1.28-15.68 1.26-16.4 1.24-17.09 1.21-17.78 1.18-18.4 1.14-19.02 1.09-19.51L1.09-19.51 4.51-19.67Q4.48-18.83 4.46-17.94 4.44-17.05 4.43-16.17 4.41-15.3 4.41-14.48 4.4-13.67 4.4-12.96L4.4-12.96Q4.4-9.41 4.49-6.2 4.58-2.99 4.81 0.14ZM15.11-19.83L18.72-19.94Q18.65-18.84 18.6-17.65 18.56-16.46 18.52-15.27 18.49-14.07 18.47-12.92 18.45-11.76 18.43-10.74 18.42-9.73 18.42-8.88 18.42-8.04 18.42-7.46L18.42-7.46Q18.42-6.7 18.42-5.77 18.42-4.85 18.43-3.87 18.45-2.89 18.47-1.91 18.49-0.92 18.53-0.05L18.53-0.05Q17.94-0.08 17.46-0.08 16.98-0.08 16.59-0.08L16.59-0.08Q15.88-0.08 15.42-0.07 14.96-0.05 14.68-0.03L14.68-0.03Q14.36 0 14.18 0.03L14.18 0.03Q14.14-0.26 14.01-0.86 13.88-1.47 13.69-2.3 13.49-3.12 13.23-4.13 12.97-5.13 12.68-6.22 12.39-7.31 12.08-8.43 11.76-9.55 11.46-10.62 11.15-11.68 10.86-12.64 10.57-13.6 10.32-14.36L10.32-14.36Q10.22-12.62 10.16-11.15 10.11-9.67 10.08-8.57L10.08-8.57Q10.04-7.29 10.04-6.24L10.04-6.24Q10.04-5.32 10.08-4.31L10.08-4.31Q10.11-3.44 10.18-2.32 10.26-1.21 10.41-0.05L10.41-0.05Q9.36-0.1 8.69-0.1 8.01-0.11 7.62-0.11L7.62-0.11 6.95-0.11Q7.02-2.54 7.06-4.24 7.1-5.94 7.12-7.08 7.15-8.23 7.15-8.92 7.16-9.62 7.16-10.05 7.16-10.47 7.15-10.73 7.15-10.99 7.15-11.26L7.15-11.26Q7.15-11.94 7.14-12.88 7.13-13.81 7.1-14.89 7.08-15.97 7.02-17.14 6.97-18.31 6.87-19.45L6.87-19.45Q8.26-19.45 9.16-19.48 10.05-19.51 10.58-19.53L10.58-19.53Q11.21-19.57 11.55-19.62L11.55-19.62Q11.61-19.18 11.82-18.26 12.04-17.33 12.33-16.12 12.62-14.9 12.99-13.49 13.35-12.08 13.74-10.64 14.13-9.21 14.52-7.86 14.92-6.51 15.27-5.42L15.27-5.42Q15.34-6.57 15.37-7.78 15.4-8.98 15.42-10.02 15.44-11.07 15.44-11.85 15.44-12.63 15.44-12.93L15.44-12.93Q15.43-14.17 15.39-15.4L15.39-15.4Q15.38-15.93 15.35-16.5 15.32-17.07 15.29-17.65 15.25-18.23 15.21-18.79 15.16-19.34 15.11-19.83L15.11-19.83ZM27 0.22L27 0.22 26.62 0.22Q25.78 0.22 25.03 0.31 24.27 0.39 23.42 0.56L23.42 0.56Q23.6-2.43 23.69-5.06 23.79-7.69 23.79-10.16L23.79-10.16Q23.79-13.33 23.62-16.41L23.62-16.41 20.2-16.16Q20.19-16.63 20.17-17.01 20.16-17.4 20.13-17.76 20.1-18.12 20.06-18.49 20.02-18.87 19.97-19.33L19.97-19.33 21.61-19.33Q22.7-19.33 23.74-19.34 24.78-19.36 25.82-19.38 26.86-19.41 27.92-19.45 28.99-19.49 30.13-19.56L30.13-19.56Q30.06-18.87 30.04-18.39 30.02-17.9 30.02-17.39L30.02-17.39 30.02-16.67 26.68-16.59Q26.64-15.28 26.63-14.03 26.62-12.77 26.62-11.49L26.62-11.49Q26.62-8.53 26.72-5.62 26.81-2.72 27 0.22ZM40.97 0.31L40.97 0.31Q39.87 0.29 38.92 0.28 37.98 0.27 37.14 0.27L37.14 0.27Q35.49 0.27 34.39 0.31 33.28 0.34 32.59 0.37L32.59 0.37Q31.77 0.41 31.3 0.45L31.3 0.45Q31.39-0.46 31.47-1.39 31.54-2.31 31.6-3.21 31.65-4.1 31.69-4.93 31.73-5.76 31.76-6.49L31.76-6.49Q31.81-8.2 31.83-9.77L31.83-9.77Q31.81-11.4 31.76-13.11L31.76-13.11Q31.73-13.84 31.69-14.65 31.65-15.46 31.6-16.3 31.54-17.14 31.47-17.99 31.39-18.84 31.3-19.64L31.3-19.64Q33-19.57 34.33-19.54 35.67-19.51 36.72-19.51L36.72-19.51Q37.75-19.51 38.5-19.53 39.24-19.55 39.72-19.57L39.72-19.57Q40.28-19.6 40.64-19.64L40.64-19.64Q40.64-19.66 40.64-19.4 40.64-19.14 40.66-18.72 40.67-18.3 40.7-17.77 40.74-17.24 40.81-16.69L40.81-16.69Q39.23-16.84 38.05-16.89 36.87-16.94 36.02-16.94L36.02-16.94Q35.67-16.94 35.41-16.94 35.14-16.94 34.91-16.91L34.91-16.91Q34.88-15.4 34.87-14.08 34.86-12.76 34.86-11.57L34.86-11.57Q35.81-11.6 36.55-11.65 37.3-11.7 37.83-11.76L37.83-11.76Q38.44-11.83 38.92-11.91L38.92-11.91Q38.9-11.82 38.9-11.7L38.9-11.7Q38.89-11.59 38.89-11.44 38.89-11.29 38.89-11.1L38.89-11.1Q38.89-10.66 38.92-10.06 38.94-9.45 39.03-8.76L39.03-8.76Q37.56-8.95 36.5-9 35.44-9.05 34.86-9.05L34.86-9.05Q34.86-7.63 34.87-6.53 34.88-5.42 34.9-4.58 34.92-3.74 34.94-3.14 34.96-2.54 34.99-2.15L34.99-2.15Q36.38-2.17 37.46-2.28 38.55-2.39 39.3-2.51 40.05-2.62 40.44-2.72 40.83-2.81 40.83-2.84L40.83-2.84Q40.82-2.77 40.82-2.69L40.82-2.69Q40.81-2.62 40.81-2.51 40.81-2.4 40.81-2.25L40.81-2.25Q40.81-1.87 40.83-1.24 40.86-0.6 40.97 0.31ZM54.58 0.37L50.63 0.24Q50.34-0.15 50.2-0.64 50.06-1.13 49.99-1.57 49.92-2.01 49.91-2.34 49.91-2.66 49.91-2.73L49.91-2.73Q49.91-3.17 49.87-3.77 49.84-4.37 49.72-5.02 49.59-5.66 49.37-6.3 49.15-6.93 48.76-7.43 48.37-7.93 47.81-8.24 47.24-8.54 46.46-8.54L46.46-8.54Q46.35-8.54 46.23-8.53 46.12-8.52 46.01-8.52L46.01-8.52 46.01-0.05 42.26 0.03Q42.34-0.45 42.4-1.09 42.46-1.74 42.5-2.47 42.54-3.19 42.57-3.98 42.6-4.77 42.61-5.53 42.63-6.29 42.63-7 42.64-7.72 42.64-8.29L42.64-8.29Q42.64-8.72 42.63-9.56 42.63-10.41 42.61-11.46 42.59-12.51 42.57-13.67 42.54-14.83 42.52-15.9 42.49-16.97 42.46-17.84 42.42-18.72 42.4-19.19L42.4-19.19Q43.14-19.34 44-19.42 44.85-19.49 45.59-19.53L45.59-19.53Q46.44-19.59 47.29-19.59L47.29-19.59Q48.64-19.64 49.84-19.36 51.03-19.09 51.94-18.43 52.84-17.77 53.38-16.73 53.91-15.69 53.94-14.25L53.94-14.25Q53.72-13.23 53.25-12.36L53.25-12.36Q53.05-11.99 52.77-11.61 52.49-11.22 52.11-10.88 51.74-10.54 51.27-10.26 50.79-9.98 50.21-9.82L50.21-9.82Q51.08-9.48 51.62-9.03 52.16-8.57 52.47-8.01 52.79-7.44 52.93-6.8 53.07-6.15 53.13-5.44 53.19-4.73 53.24-3.97 53.28-3.22 53.38-2.45L53.38-2.45Q53.49-1.86 53.66-1.33L53.66-1.33Q53.81-0.87 54.03-0.4 54.25 0.07 54.58 0.37L54.58 0.37ZM50.49-14.07L50.49-14.07Q50.48-14.94 50.11-15.64L50.11-15.64Q49.95-15.92 49.7-16.21 49.45-16.49 49.07-16.71 48.7-16.93 48.18-17.06 47.65-17.2 46.96-17.2L46.96-17.2Q46.43-17.2 45.79-17.05L45.79-17.05 45.85-10.91Q46.09-10.87 46.33-10.85 46.58-10.83 46.78-10.83L46.78-10.83Q47.43-10.83 47.94-10.96 48.44-11.1 48.82-11.33 49.2-11.56 49.47-11.85 49.74-12.13 49.93-12.44L49.93-12.44Q50.37-13.16 50.49-14.07ZM63.84-19.83L67.46-19.94Q67.39-18.84 67.34-17.65 67.29-16.46 67.26-15.27 67.23-14.07 67.21-12.92 67.19-11.76 67.17-10.74 67.16-9.73 67.16-8.88 67.16-8.04 67.16-7.46L67.16-7.46Q67.16-6.7 67.16-5.77 67.16-4.85 67.17-3.87 67.19-2.89 67.21-1.91 67.23-0.92 67.27-0.05L67.27-0.05Q66.68-0.08 66.2-0.08 65.72-0.08 65.32-0.08L65.32-0.08Q64.62-0.08 64.16-0.07 63.69-0.05 63.42-0.03L63.42-0.03Q63.1 0 62.92 0.03L62.92 0.03Q62.88-0.26 62.75-0.86 62.62-1.47 62.42-2.3 62.23-3.12 61.97-4.13 61.71-5.13 61.42-6.22 61.13-7.31 60.82-8.43 60.5-9.55 60.2-10.62 59.89-11.68 59.6-12.64 59.31-13.6 59.06-14.36L59.06-14.36Q58.95-12.62 58.9-11.15 58.85-9.67 58.82-8.57L58.82-8.57Q58.78-7.29 58.78-6.24L58.78-6.24Q58.78-5.32 58.82-4.31L58.82-4.31Q58.85-3.44 58.92-2.32 58.99-1.21 59.14-0.05L59.14-0.05Q58.1-0.1 57.43-0.1 56.75-0.11 56.36-0.11L56.36-0.11 55.69-0.11Q55.76-2.54 55.8-4.24 55.84-5.94 55.86-7.08 55.88-8.23 55.89-8.92 55.9-9.62 55.9-10.05 55.9-10.47 55.89-10.73 55.88-10.99 55.88-11.26L55.88-11.26Q55.88-11.94 55.88-12.88 55.87-13.81 55.84-14.89 55.82-15.97 55.76-17.14 55.71-18.31 55.61-19.45L55.61-19.45Q57-19.45 57.89-19.48 58.79-19.51 59.32-19.53L59.32-19.53Q59.95-19.57 60.29-19.62L60.29-19.62Q60.35-19.18 60.56-18.26 60.77-17.33 61.07-16.12 61.36-14.9 61.73-13.49 62.09-12.08 62.48-10.64 62.87-9.21 63.26-7.86 63.65-6.51 64.01-5.42L64.01-5.42Q64.08-6.57 64.11-7.78 64.14-8.98 64.16-10.02 64.18-11.07 64.18-11.85 64.18-12.63 64.18-12.93L64.18-12.93Q64.17-14.17 64.13-15.4L64.13-15.4Q64.12-15.93 64.09-16.5 64.06-17.07 64.03-17.65 63.99-18.23 63.95-18.79 63.9-19.34 63.84-19.83L63.84-19.83ZM69.79-1.62L69.79-1.62Q69.79-2.66 69.75-3.71 69.7-4.75 69.64-5.81 69.59-6.86 69.54-7.93 69.5-8.99 69.5-10.09L69.5-10.09Q69.5-11.25 69.57-12.44 69.64-13.62 69.86-14.73 70.08-15.84 70.46-16.81 70.84-17.78 71.45-18.5 72.06-19.22 72.95-19.64 73.83-20.06 75.02-20.06L75.02-20.06Q76.16-20.06 77.01-19.7 77.85-19.34 78.44-18.72 79.03-18.09 79.4-17.25 79.78-16.41 79.99-15.43 80.2-14.45 80.28-13.39 80.36-12.33 80.36-11.29L80.36-11.29Q80.36-11.02 80.36-10.81 80.35-10.61 80.34-10.37 80.34-10.13 80.31-9.81 80.29-9.48 80.27-8.96 80.24-8.44 80.21-7.67 80.17-6.91 80.13-5.8 80.09-4.69 80.04-3.17 79.98-1.66 79.93 0.37L79.93 0.37 75.87 0.22Q76.1-1.33 76.28-2.89 76.46-4.44 76.59-5.79L76.59-5.79Q75.54-5.87 74.64-5.87L74.64-5.87Q74.18-5.87 73.77-5.85 73.37-5.84 73.05-5.81L73.05-5.81Q73.09-5.11 73.15-4.32 73.2-3.53 73.27-2.73 73.34-1.93 73.42-1.15 73.5-0.37 73.61 0.34L73.61 0.34 69.77 0.45Q69.79-0.05 69.79-0.58 69.79-1.1 69.79-1.62ZM72.89-8.68L72.89-8.68Q73.3-8.65 73.69-8.65 74.09-8.65 74.47-8.65L74.47-8.65Q75.92-8.65 76.8-8.73L76.8-8.73Q76.88-9.7 76.97-10.68 77.06-11.65 77.06-12.77L77.06-12.77Q77.06-15.12 76.58-16.35 76.1-17.58 75.16-17.58L75.16-17.58Q74.64-17.58 74.21-17.21 73.77-16.84 73.45-16.08 73.14-15.31 72.95-14.14 72.77-12.97 72.77-11.38L72.77-11.38Q72.77-10.83 72.8-10.19 72.84-9.56 72.89-8.68ZM88.46 0.22L88.46 0.22 88.08 0.22Q87.24 0.22 86.48 0.31 85.73 0.39 84.87 0.56L84.87 0.56Q85.05-2.43 85.14-5.06 85.24-7.69 85.24-10.16L85.24-10.16Q85.24-13.33 85.08-16.41L85.08-16.41 81.65-16.16Q81.64-16.63 81.63-17.01 81.61-17.4 81.58-17.76 81.56-18.12 81.52-18.49 81.48-18.87 81.42-19.33L81.42-19.33 83.07-19.33Q84.15-19.33 85.19-19.34 86.23-19.36 87.27-19.38 88.31-19.41 89.38-19.45 90.44-19.49 91.58-19.56L91.58-19.56Q91.51-18.87 91.49-18.39 91.47-17.9 91.47-17.39L91.47-17.39 91.47-16.67 88.13-16.59Q88.09-15.28 88.08-14.03 88.08-12.77 88.08-11.49L88.08-11.49Q88.08-8.53 88.17-5.62 88.27-2.72 88.46 0.22ZM96.58 0.14L96.58 0.14 93 0.5Q93.02-0.41 93.04-1.39 93.06-2.38 93.08-3.36 93.09-4.33 93.1-5.28 93.12-6.22 93.12-7.06L93.12-7.06Q93.13-9.05 93.13-10.96L93.13-10.96Q93.12-12.67 93.09-14.28L93.09-14.28Q93.08-14.96 93.06-15.68 93.04-16.4 93.01-17.09 92.98-17.78 92.95-18.4 92.91-19.02 92.86-19.51L92.86-19.51 96.28-19.67Q96.26-18.83 96.24-17.94 96.21-17.05 96.2-16.17 96.19-15.3 96.18-14.48 96.17-13.67 96.17-12.96L96.17-12.96Q96.17-9.41 96.26-6.2 96.35-2.99 96.58 0.14ZM110.94-9.74L110.94-9.74Q110.94-7.57 110.53-5.66 110.12-3.76 109.32-2.34 108.52-0.92 107.33-0.1 106.14 0.72 104.6 0.72L104.6 0.72Q103.02 0.72 101.83-0.1 100.64-0.92 99.85-2.34 99.05-3.76 98.65-5.66 98.25-7.57 98.25-9.74L98.25-9.74Q98.25-11.9 98.64-13.8 99.03-15.7 99.81-17.12 100.6-18.53 101.8-19.35 102.99-20.17 104.6-20.17L104.6-20.17Q106.25-20.17 107.46-19.35 108.66-18.53 109.43-17.12 110.21-15.7 110.57-13.8 110.94-11.9 110.94-9.74ZM107.38-9.74L107.38-9.74Q107.38-11.42 107.24-12.91 107.11-14.4 106.79-15.51 106.47-16.61 105.93-17.25 105.4-17.89 104.6-17.89L104.6-17.89Q103.82-17.89 103.29-17.25 102.76-16.61 102.44-15.51 102.11-14.4 101.96-12.91 101.81-11.42 101.81-9.74L101.81-9.74Q101.81-8.04 101.96-6.55 102.11-5.07 102.44-3.96 102.78-2.85 103.31-2.21 103.84-1.56 104.6-1.56L104.6-1.56Q105.34-1.56 105.87-2.21 106.4-2.85 106.74-3.96 107.08-5.07 107.23-6.55 107.38-8.04 107.38-9.74ZM120.9-19.83L124.51-19.94Q124.44-18.84 124.39-17.65 124.35-16.46 124.31-15.27 124.28-14.07 124.26-12.92 124.24-11.76 124.22-10.74 124.21-9.73 124.21-8.88 124.21-8.04 124.21-7.46L124.21-7.46Q124.21-6.7 124.21-5.77 124.21-4.85 124.22-3.87 124.24-2.89 124.26-1.91 124.28-0.92 124.32-0.05L124.32-0.05Q123.74-0.08 123.25-0.08 122.77-0.08 122.38-0.08L122.38-0.08Q121.67-0.08 121.21-0.07 120.75-0.05 120.48-0.03L120.48-0.03Q120.15 0 119.97 0.03L119.97 0.03Q119.93-0.26 119.8-0.86 119.67-1.47 119.48-2.3 119.28-3.12 119.02-4.13 118.76-5.13 118.47-6.22 118.18-7.31 117.87-8.43 117.55-9.55 117.25-10.62 116.94-11.68 116.65-12.64 116.36-13.6 116.12-14.36L116.12-14.36Q116.01-12.62 115.95-11.15 115.9-9.67 115.87-8.57L115.87-8.57Q115.83-7.29 115.83-6.24L115.83-6.24Q115.83-5.32 115.87-4.31L115.87-4.31Q115.9-3.44 115.97-2.32 116.05-1.21 116.2-0.05L116.2-0.05Q115.15-0.1 114.48-0.1 113.81-0.11 113.41-0.11L113.41-0.11 112.75-0.11Q112.81-2.54 112.85-4.24 112.9-5.94 112.92-7.08 112.94-8.23 112.94-8.92 112.95-9.62 112.95-10.05 112.95-10.47 112.94-10.73 112.94-10.99 112.94-11.26L112.94-11.26Q112.94-11.94 112.93-12.88 112.92-13.81 112.9-14.89 112.87-15.97 112.81-17.14 112.76-18.31 112.66-19.45L112.66-19.45Q114.05-19.45 114.95-19.48 115.84-19.51 116.37-19.53L116.37-19.53Q117-19.57 117.34-19.62L117.34-19.62Q117.41-19.18 117.62-18.26 117.83-17.33 118.12-16.12 118.41-14.9 118.78-13.49 119.14-12.08 119.53-10.64 119.92-9.21 120.31-7.86 120.71-6.51 121.06-5.42L121.06-5.42Q121.13-6.57 121.16-7.78 121.2-8.98 121.22-10.02 121.24-11.07 121.24-11.85 121.24-12.63 121.24-12.93L121.24-12.93Q121.22-14.17 121.18-15.4L121.18-15.4Q121.17-15.93 121.14-16.5 121.11-17.07 121.08-17.65 121.05-18.23 121-18.79 120.95-19.34 120.9-19.83L120.9-19.83ZM126.85-1.62L126.85-1.62Q126.85-2.66 126.8-3.71 126.75-4.75 126.7-5.81 126.64-6.86 126.59-7.93 126.55-8.99 126.55-10.09L126.55-10.09Q126.55-11.25 126.62-12.44 126.7-13.62 126.91-14.73 127.13-15.84 127.51-16.81 127.89-17.78 128.5-18.5 129.11-19.22 130-19.64 130.88-20.06 132.08-20.06L132.08-20.06Q133.22-20.06 134.06-19.7 134.9-19.34 135.49-18.72 136.08-18.09 136.46-17.25 136.83-16.41 137.04-15.43 137.25-14.45 137.33-13.39 137.41-12.33 137.41-11.29L137.41-11.29Q137.41-11.02 137.41-10.81 137.4-10.61 137.39-10.37 137.39-10.13 137.37-9.81 137.35-9.48 137.32-8.96 137.29-8.44 137.26-7.67 137.22-6.91 137.18-5.8 137.14-4.69 137.09-3.17 137.03-1.66 136.98 0.37L136.98 0.37 132.92 0.22Q133.15-1.33 133.33-2.89 133.52-4.44 133.64-5.79L133.64-5.79Q132.59-5.87 131.7-5.87L131.7-5.87Q131.23-5.87 130.83-5.85 130.42-5.84 130.11-5.81L130.11-5.81Q130.15-5.11 130.2-4.32 130.26-3.53 130.32-2.73 130.39-1.93 130.47-1.15 130.55-0.37 130.66 0.34L130.66 0.34 126.82 0.45Q126.85-0.05 126.85-0.58 126.85-1.1 126.85-1.62ZM129.94-8.68L129.94-8.68Q130.35-8.65 130.74-8.65 131.14-8.65 131.52-8.65L131.52-8.65Q132.97-8.65 133.86-8.73L133.86-8.73Q133.94-9.7 134.03-10.68 134.11-11.65 134.11-12.77L134.11-12.77Q134.11-15.12 133.63-16.35 133.15-17.58 132.21-17.58L132.21-17.58Q131.7-17.58 131.26-17.21 130.83-16.84 130.51-16.08 130.19-15.31 130-14.14 129.82-12.97 129.82-11.38L129.82-11.38Q129.82-10.83 129.86-10.19 129.89-9.56 129.94-8.68ZM148.74 0.86L148.74 0.86Q147.77 0.83 146.9 0.83 146.03 0.83 145.27 0.83L145.27 0.83Q143.72 0.83 142.61 0.86 141.5 0.9 140.77 0.92L140.77 0.92Q139.93 0.96 139.34 1.01L139.34 1.01Q139.44 0.1 139.51-0.84 139.59-1.78 139.64-2.69 139.7-3.6 139.74-4.46 139.78-5.31 139.81-6.07L139.81-6.07Q139.86-7.84 139.87-9.48L139.87-9.48Q139.86-11.11 139.81-12.82L139.81-12.82Q139.78-13.56 139.74-14.36 139.7-15.17 139.64-16.02 139.59-16.86 139.51-17.71 139.44-18.56 139.34-19.36L139.34-19.36 143.35-19.56Q143.09-16.49 143-13.65 142.9-10.8 142.9-8.39L142.9-8.39Q142.9-6.09 142.95-4.44 143-2.8 143.04-1.94L143.04-1.94 143.09-1.94Q144.15-1.94 145.16-2.11 146.18-2.27 146.98-2.47L146.98-2.47Q147.91-2.7 148.74-3L148.74-3Q148.73-2.85 148.73-2.62L148.73-2.62Q148.72-2.43 148.72-2.13 148.72-1.82 148.72-1.39L148.72-1.39Q148.72-0.95 148.72-0.4 148.72 0.15 148.74 0.86Z" transform="translate(-1.090000033378601, 20.170000076293945)"></path></g></g></g></g> <!----></g></g><defs v-gra="od"></defs></svg>